<svg width="375" height="75" viewBox="0 0 375 75" fill="none" xmlns="http://www.w3.org/2000/svg">
<path d="M63 75C59.0127 53.3854 40.8304 23.125 0 75L51.038 0L63 75Z" fill="#2969CA"/>
<path d="M82.48 50L95.76 19.4H96.08L109.36 50H102.64L94.16 28.48L98.36 25.6L88.2 50H82.48ZM91.56 39.36H100.4L102.44 44.24H89.76L91.56 39.36ZM112.732 50V18.44H118.332V50H112.732ZM122.772 38.12L130.692 50H124.172L119.092 41.32L122.772 38.12ZM116.652 45.16L116.092 39.84L126.652 32.08L130.052 35.08L116.652 45.16ZM135.488 50V20.56H144.288C147.248 20.56 149.768 21 151.848 21.88C153.928 22.76 155.594 23.9333 156.848 25.4C158.128 26.8667 159.061 28.5067 159.648 30.32C160.234 32.1333 160.528 33.96 160.528 35.8C160.528 37.9867 160.128 39.96 159.328 41.72C158.554 43.4533 157.488 44.9467 156.128 46.2C154.768 47.4267 153.194 48.3733 151.408 49.04C149.621 49.68 147.728 50 145.728 50H135.488ZM141.288 44.4H144.728C146.194 44.4 147.528 44.2133 148.728 43.84C149.928 43.44 150.954 42.8667 151.808 42.12C152.688 41.3733 153.354 40.44 153.808 39.32C154.288 38.1733 154.528 36.8667 154.528 35.4C154.528 33.48 154.208 31.92 153.568 30.72C152.954 29.4933 152.181 28.5467 151.248 27.88C150.341 27.2133 149.408 26.76 148.448 26.52C147.488 26.2533 146.674 26.12 146.008 26.12H141.288V44.4ZM172.787 50.48C171.16 50.48 169.68 50.16 168.347 49.52C167.04 48.8533 166 47.84 165.227 46.48C164.454 45.12 164.067 43.3867 164.067 41.28C164.067 39.3067 164.467 37.6 165.267 36.16C166.067 34.72 167.12 33.6133 168.427 32.84C169.734 32.04 171.12 31.64 172.587 31.64C174.32 31.64 175.627 31.9333 176.507 32.52C177.414 33.08 178.16 33.7067 178.747 34.4L178.507 35.08L179.027 32.52H184.227V50H178.627V46.2L179.067 47.4C179.014 47.4 178.854 47.56 178.587 47.88C178.32 48.1733 177.92 48.5333 177.387 48.96C176.88 49.36 176.24 49.7067 175.467 50C174.72 50.32 173.827 50.48 172.787 50.48ZM174.387 45.92C175.054 45.92 175.654 45.8267 176.187 45.64C176.72 45.4267 177.187 45.1333 177.587 44.76C177.987 44.36 178.334 43.8667 178.627 43.28V39C178.414 38.4133 178.094 37.92 177.667 37.52C177.24 37.0933 176.734 36.7733 176.147 36.56C175.56 36.32 174.907 36.2 174.187 36.2C173.387 36.2 172.64 36.4133 171.947 36.84C171.28 37.24 170.747 37.8 170.347 38.52C169.947 39.24 169.747 40.0667 169.747 41C169.747 41.9333 169.96 42.7733 170.387 43.52C170.814 44.2667 171.374 44.8533 172.067 45.28C172.787 45.7067 173.56 45.92 174.387 45.92ZM195.677 50.36C194.237 50.36 192.891 50.1067 191.637 49.6C190.411 49.0933 189.371 48.3867 188.517 47.48L190.837 44.4C191.691 45.1733 192.477 45.7333 193.197 46.08C193.944 46.4 194.611 46.56 195.197 46.56C195.651 46.56 196.051 46.52 196.397 46.44C196.771 46.3333 197.064 46.1867 197.277 46C197.491 45.7867 197.597 45.52 197.597 45.2C197.597 44.7467 197.411 44.3867 197.037 44.12C196.691 43.8533 196.237 43.64 195.677 43.48C195.117 43.2933 194.517 43.1067 193.877 42.92C192.277 42.4133 191.117 41.68 190.397 40.72C189.704 39.7333 189.357 38.6667 189.357 37.52C189.357 36.64 189.584 35.76 190.037 34.88C190.517 33.9733 191.264 33.2267 192.277 32.64C193.317 32.0267 194.651 31.72 196.277 31.72C197.744 31.72 198.984 31.8667 199.997 32.16C201.011 32.4533 201.971 32.9333 202.877 33.6L200.757 36.88C200.251 36.48 199.677 36.1467 199.037 35.88C198.424 35.5867 197.851 35.4267 197.317 35.4C196.837 35.3733 196.424 35.4267 196.077 35.56C195.757 35.6933 195.504 35.8667 195.317 36.08C195.131 36.2933 195.037 36.52 195.037 36.76C195.011 37.2667 195.197 37.6667 195.597 37.96C196.024 38.2533 196.557 38.48 197.197 38.64C197.837 38.8 198.464 38.9867 199.077 39.2C199.931 39.4667 200.664 39.8267 201.277 40.28C201.891 40.7333 202.357 41.28 202.677 41.92C203.024 42.5333 203.197 43.28 203.197 44.16C203.197 45.2267 202.917 46.24 202.357 47.2C201.824 48.1333 200.997 48.8933 199.877 49.48C198.784 50.0667 197.384 50.36 195.677 50.36ZM207.888 50V18.44H213.368V36.04L213.328 35.36C213.941 34.2667 214.808 33.3867 215.928 32.72C217.048 32.0267 218.421 31.68 220.048 31.68C221.701 31.68 223.074 32.1733 224.168 33.16C225.288 34.12 225.861 35.3733 225.888 36.92V50H220.288V39C220.261 38.2267 220.048 37.6133 219.648 37.16C219.274 36.68 218.634 36.44 217.728 36.44C216.874 36.44 216.128 36.72 215.488 37.28C214.848 37.84 214.354 38.6 214.008 39.56C213.661 40.52 213.488 41.6267 213.488 42.88V50H207.888ZM261.286 27.68C260.166 27.0667 259.019 26.56 257.846 26.16C256.699 25.76 255.619 25.56 254.606 25.56C253.352 25.56 252.366 25.8133 251.646 26.32C250.926 26.8267 250.566 27.5867 250.566 28.6C250.566 29.2933 250.832 29.92 251.366 30.48C251.926 31.0133 252.632 31.4933 253.486 31.92C254.366 32.3467 255.272 32.7333 256.206 33.08C257.059 33.4 257.899 33.7867 258.726 34.24C259.579 34.6667 260.339 35.2133 261.006 35.88C261.672 36.52 262.206 37.3333 262.606 38.32C263.006 39.28 263.206 40.4667 263.206 41.88C263.206 43.3733 262.819 44.76 262.046 46.04C261.272 47.32 260.139 48.36 258.646 49.16C257.152 49.9333 255.312 50.32 253.126 50.32C252.006 50.32 250.859 50.2133 249.686 50C248.539 49.76 247.406 49.4133 246.286 48.96C245.166 48.48 244.086 47.88 243.046 47.16L245.606 42.64C246.299 43.1467 247.046 43.6 247.846 44C248.672 44.3733 249.499 44.6667 250.326 44.88C251.152 45.0933 251.912 45.2 252.606 45.2C253.299 45.2 253.992 45.1067 254.686 44.92C255.406 44.7067 255.992 44.36 256.446 43.88C256.926 43.4 257.166 42.7333 257.166 41.88C257.166 41.2933 256.966 40.76 256.566 40.28C256.192 39.8 255.672 39.36 255.006 38.96C254.366 38.56 253.659 38.2133 252.886 37.92C251.979 37.5733 251.046 37.1733 250.086 36.72C249.126 36.2667 248.219 35.72 247.366 35.08C246.539 34.4133 245.859 33.6 245.326 32.64C244.819 31.6533 244.566 30.4533 244.566 29.04C244.566 27.3333 244.939 25.8533 245.686 24.6C246.459 23.3467 247.539 22.36 248.926 21.64C250.312 20.8933 251.912 20.48 253.726 20.4C256.099 20.4 258.019 20.68 259.486 21.24C260.979 21.8 262.312 22.4667 263.486 23.24L261.286 27.68ZM269.606 24.84H275.206V32.44H279.446V36.8H275.206V50H269.606V36.8H266.886V32.44H269.606V24.84ZM291.068 50.48C289.441 50.48 287.961 50.16 286.628 49.52C285.321 48.8533 284.281 47.84 283.508 46.48C282.735 45.12 282.348 43.3867 282.348 41.28C282.348 39.3067 282.748 37.6 283.548 36.16C284.348 34.72 285.401 33.6133 286.708 32.84C288.015 32.04 289.401 31.64 290.868 31.64C292.601 31.64 293.908 31.9333 294.788 32.52C295.695 33.08 296.441 33.7067 297.028 34.4L296.788 35.08L297.308 32.52H302.508V50H296.908V46.2L297.348 47.4C297.295 47.4 297.135 47.56 296.868 47.88C296.601 48.1733 296.201 48.5333 295.668 48.96C295.161 49.36 294.521 49.7067 293.748 50C293.001 50.32 292.108 50.48 291.068 50.48ZM292.668 45.92C293.335 45.92 293.935 45.8267 294.468 45.64C295.001 45.4267 295.468 45.1333 295.868 44.76C296.268 44.36 296.615 43.8667 296.908 43.28V39C296.695 38.4133 296.375 37.92 295.948 37.52C295.521 37.0933 295.015 36.7733 294.428 36.56C293.841 36.32 293.188 36.2 292.468 36.2C291.668 36.2 290.921 36.4133 290.228 36.84C289.561 37.24 289.028 37.8 288.628 38.52C288.228 39.24 288.028 40.0667 288.028 41C288.028 41.9333 288.241 42.7733 288.668 43.52C289.095 44.2667 289.655 44.8533 290.348 45.28C291.068 45.7067 291.841 45.92 292.668 45.92ZM313.318 32.52L313.838 37.32L313.718 36.6C314.225 35.56 314.918 34.68 315.798 33.96C316.678 33.2133 317.545 32.64 318.398 32.24C319.278 31.84 319.945 31.64 320.398 31.64L320.118 37.24C318.812 37.08 317.692 37.2933 316.758 37.88C315.825 38.4667 315.105 39.24 314.598 40.2C314.092 41.16 313.838 42.1467 313.838 43.16V50H308.278V32.52H313.318ZM326.325 24.84H331.925V32.44H336.165V36.8H331.925V50H326.325V36.8H323.605V32.44H326.325V24.84ZM349.027 50.48C346.894 50.48 345.08 50.08 343.587 49.28C342.12 48.48 341 47.3733 340.227 45.96C339.454 44.5467 339.067 42.92 339.067 41.08C339.067 39.32 339.52 37.7333 340.427 36.32C341.334 34.9067 342.547 33.7867 344.067 32.96C345.587 32.1067 347.28 31.68 349.147 31.68C351.654 31.68 353.707 32.4133 355.307 33.88C356.934 35.32 357.987 37.4133 358.467 40.16L344.867 44.48L343.627 41.44L353.467 38.12L352.307 38.64C352.094 37.9467 351.707 37.3467 351.147 36.84C350.614 36.3067 349.8 36.04 348.707 36.04C347.88 36.04 347.147 36.24 346.507 36.64C345.894 37.0133 345.414 37.56 345.067 38.28C344.747 38.9733 344.587 39.8 344.587 40.76C344.587 41.8533 344.787 42.7733 345.187 43.52C345.587 44.24 346.134 44.7867 346.827 45.16C347.52 45.5333 348.294 45.72 349.147 45.72C349.76 45.72 350.347 45.6133 350.907 45.4C351.494 45.1867 352.067 44.9067 352.627 44.56L355.107 48.72C354.174 49.2533 353.16 49.68 352.067 50C351 50.32 349.987 50.48 349.027 50.48ZM367.576 32.52L368.096 37.32L367.976 36.6C368.483 35.56 369.176 34.68 370.056 33.96C370.936 33.2133 371.803 32.64 372.656 32.24C373.536 31.84 374.203 31.64 374.656 31.64L374.376 37.24C373.07 37.08 371.95 37.2933 371.016 37.88C370.083 38.4667 369.363 39.24 368.856 40.2C368.35 41.16 368.096 42.1467 368.096 43.16V50H362.536V32.52H367.576Z" fill="black"/>
</svg>
